<svg width="30" height="29" viewBox="0 0 30 29" fill="none" xmlns="http://www.w3.org/2000/svg">
<path fill-rule="evenodd" clip-rule="evenodd" d="M25.7143 9.4462H3.21429V27C3.21429 28.1046 4.10972 29 5.21429 29H23.7143C24.8189 29 25.7143 28.1046 25.7143 27V9.4462ZM18.2143 16.3475H10.7143V29H18.2143V16.3475Z" fill="white"/>
<path d="M14.4643 2.54485L25.7143 9.44619H3.21429L14.4643 2.54485Z" fill="white"/>
<path d="M0.431295 9.63171C0.193097 9.18203 0.352097 8.60254 0.78643 8.33739L14.4329 0.00650989L15.2955 1.63495L1.64902 9.96583C1.21469 10.231 0.669493 10.0814 0.431295 9.63171Z" fill="white"/>
<path d="M29.5687 10.3169C29.8069 9.86721 29.6479 9.28772 29.2136 9.02257L14.4341 -8.44964e-06L13.5715 1.62843L28.351 10.651C28.7853 10.9162 29.3305 10.7666 29.5687 10.3169Z" fill="white"/>
</svg>
